<svg width="121" height="24" viewBox="0 0 121 24" fill="none" xmlns="http://www.w3.org/2000/svg">
<path d="M51.8715 0.38949C51.7418 0.241113 51.5379 0.12983 51.2785 0.0741887C51.019 0.0185472 50.6484 0 50.1851 0H45.3667V21.1438L38.3245 1.55796C38.1206 1.05719 37.8612 0.667698 37.5647 0.408038C37.2496 0.148377 36.8234 0.0185472 36.2489 0.0185472H29.6885L21.59 21.7744V1.94745C21.59 1.55796 21.5714 1.22411 21.5344 0.983C21.4973 0.741887 21.4232 0.537868 21.2934 0.38949C21.1637 0.241113 20.9599 0.12983 20.7004 0.0741887C20.441 0.0185472 20.0703 0 19.607 0H14.8999V9.03247H6.72717V1.94745C6.72717 1.55796 6.70864 1.22411 6.67158 0.983C6.63451 0.741887 6.56038 0.556415 6.43066 0.38949C6.30093 0.241113 6.09708 0.12983 5.83763 0.0741887C5.57818 0.0185472 5.20754 0 4.74423 0H0V22.034C0 22.4235 0.0185322 22.7574 0.0555965 22.9985C0.0926608 23.2396 0.185322 23.4436 0.315047 23.592C0.444772 23.7404 0.630093 23.8517 0.908076 23.9073C1.16753 23.9444 1.53817 23.9815 2.00147 23.9815H6.7457V14.5039H14.9184V22.034C14.9184 22.4235 14.9369 22.7574 14.974 22.9985C15.011 23.2396 15.0852 23.4436 15.2149 23.592C15.3446 23.7404 15.5485 23.8517 15.8079 23.9073C16.0674 23.9444 16.438 23.9815 16.9013 23.9815H20.7931H26.2045C26.779 23.9815 27.2052 23.8517 27.5017 23.592C27.7982 23.3323 28.0577 22.9428 28.2801 22.4421L29.3549 19.8084H37.6759L38.6951 22.4421C38.8805 22.9428 39.1399 23.3323 39.455 23.592C39.77 23.8517 40.2148 23.9815 40.7707 23.9815H46.4416L46.423 23.9258C46.6825 23.9629 46.9975 23.9815 47.4053 23.9815H52.2236V1.94745C52.2236 1.55796 52.2051 1.22411 52.1865 0.983C52.0754 0.741887 52.0012 0.556415 51.8715 0.38949ZM31.1155 14.5039L33.5988 6.19475L35.9338 14.5039H31.1155Z" fill="#58595B"/>
<path d="M74.8144 0C73.3874 0 72.4423 0.612057 71.9604 1.85472L67.3645 16.711L62.7129 1.85472C62.231 0.612057 61.2859 0 59.8775 0H54.8738L62.5832 21.9969C62.8241 22.7017 63.2133 23.2211 63.7692 23.5178C64.3252 23.8331 64.9367 23.9815 65.641 23.9815H71.6083L79.9107 0H74.8144Z" fill="#58595B"/>
<path d="M120.719 0.982999C120.682 0.741886 120.607 0.537867 120.478 0.38949C120.348 0.241113 120.163 0.12983 119.885 0.0741886C119.625 0.0185471 119.273 0 118.791 0H114.64V16.2658C114.473 15.7465 114.214 15.0603 113.862 14.1886C113.491 13.3354 113.102 12.3895 112.639 11.4065C112.194 10.4049 111.712 9.38485 111.193 8.32767C110.674 7.28903 110.211 6.30603 109.748 5.39722C109.303 4.48841 108.895 3.70943 108.543 3.04173C108.191 2.37403 107.95 1.91036 107.802 1.68779C107.431 1.09428 107.042 0.64915 106.634 0.38949C106.227 0.12983 105.689 0 105.003 0H98.0353V21.1252L90.9931 1.53941C90.7892 1.03864 90.5298 0.64915 90.2333 0.38949C89.9553 0.12983 89.5105 0 88.9545 0H82.3942L73.4617 23.9815H78.8731C79.4476 23.9815 79.8738 23.8516 80.1703 23.592C80.4668 23.3323 80.7263 22.9428 80.9487 22.442L82.0235 19.8083H90.3445L91.3637 22.442C91.549 22.9428 91.8085 23.3323 92.1235 23.592C92.4386 23.8516 92.8648 23.9815 93.4393 23.9815H99.1102L99.0916 23.9258C99.3511 23.9629 99.6661 23.9815 100.074 23.9815H104.318V7.91963C104.484 8.40186 104.725 9.01391 105.04 9.73725C105.355 10.4606 105.726 11.2581 106.134 12.1298C106.542 13.0015 106.986 13.9104 107.45 14.8563C107.913 15.8022 108.395 16.7295 108.84 17.6198C109.303 18.5286 109.748 19.3632 110.192 20.1607C110.637 20.9397 111.026 21.6445 111.341 22.238C111.99 23.4065 112.935 24 114.14 24H120.774V1.94745C120.756 1.55796 120.756 1.24266 120.719 0.982999ZM83.8026 14.5039L86.2859 6.19475L88.621 14.5039H83.8026Z" fill="#58595B"/>
</svg>
